PathFileType	4	(X/Y/Z)	Patient4_TMGait_0pt4_01_left_20.trc.trc
DataRate	CameraRate	NumFrames	NumMarkers	Units	OrigDataRate	OrigDataStartFrame	OrigNumFrames
80.924855491329	80.924855491329	6	33	mm	80.924855491329	36	       141
Frame#	Time	Sacral			L.Shoulder			Chest			R.Shoulder			Neck			R.ASIS			L.ASIS			R.Thigh.Superior			R.Thigh.Lateral			R.Thigh.Inferior			R.Patella			L.Thigh.Superior			L.Thigh.Lateral			L.Thigh.Inferior			L.Patella			L.Shank.Superior			L.Shank.Lateral			L.Shank.Inferior			R.Shank.Superior			R.Shank.Lateral			R.Shank.Inferior			R.Heel			R.Midfoot.Superior			R.Midfoot.Lateral			R.Toe			L.Heel			L.Midfoot.Lateral			L.Midfoot.Superior			L.Toe			L.Elbow			L.Wrist			R.Elbow			R.Wrist			
		X1	Y1	Z1	X2	Y2	Z2	X3	Y3	Z3	X4	Y4	Z4	X5	Y5	Z5	X6	Y6	Z6	X7	Y7	Z7	X8	Y8	Z8	X9	Y9	Z9	X10	Y10	Z10	X11	Y11	Z11	X12	Y12	Z12	X13	Y13	Z13	X14	Y14	Z14	X15	Y15	Z15	X16	Y16	Z16	X17	Y17	Z17	X18	Y18	Z18	X19	Y19	Z19	X20	Y20	Z20	X21	Y21	Z21	X22	Y22	Z22	X23	Y23	Z23	X24	Y24	Z24	X25	Y25	Z25	X26	Y26	Z26	X27	Y27	Z27	X28	Y28	Z28	X29	Y29	Z29	X30	Y30	Z30	X31	Y31	Z31	X32	Y32	Z32	X33	Y33	Z33	

36	24.362500000000	594.394141911746	1000.683141170525	431.563236669216	760.860436829171	1414.221250809932	215.594398652421	882.405844069639	1352.024773990678	366.219442796971	823.104467162200	1440.058947442168	544.286686634500	776.302310718331	1484.783603756114	366.929029130261	828.267856259723	933.148628978525	532.163596246208	797.683385525279	951.298788981145	260.568790710492	836.226292068960	719.502954712471	508.785855373343	739.916090582219	620.792425579446	573.318857290190	805.160220743252	555.897794022302	494.566995969050	789.008324001025	459.331033756933	506.904413392928	875.664405688444	762.824221188779	297.693916902935	813.632631123931	633.358115076282	232.280523960619	911.766498210745	571.220323173029	295.521787508092	924.335349912726	498.906495767006	301.762870906729	899.191769776985	423.007734628401	293.358588203670	814.320252827299	305.807289270973	239.814093230907	870.274115531283	195.181368742625	308.327571287600	730.291437934520	383.792756165567	514.243740803072	628.493401486444	310.010620979834	578.294167187673	639.726743734858	204.672770377245	519.415095408896	465.568960150044	68.463094713600	491.941235847976	641.769881648673	99.170227003897	530.773219998372	545.712521713166	49.043704978192	566.674061300963	751.927377157781	36.870887564980	561.800662239288	747.068310090844	38.457632340537	347.543263467014	821.126071703320	35.245840504525	266.984275835681	904.623616077059	96.164870269548	293.933153367447	1032.815528909337	44.297162680688	265.355714974401	650.782773829231	1083.663358549955	103.356065136446	689.657344984361	833.061623618737	32.973252340462	856.607386645857	1097.332827932199	675.189035814761	1040.531587276360	935.144057041716	595.015383215602	
37	24.374857142857	595.595758866747	1001.198664402518	428.486621161772	761.965757554404	1414.812341005181	212.934023635647	883.159942837832	1352.976528877173	364.008842925027	823.153369787688	1441.129516864367	541.750530249497	776.758301396598	1485.521331479676	364.252470585405	828.946105284841	933.944158090221	529.893811372445	799.714029675547	951.940575576188	258.439901418527	839.161962899044	720.611558291558	507.259922389706	744.323636972645	621.065490601295	571.961279632946	811.151416300238	556.457531114601	493.782229802960	795.815593878954	458.360155165044	507.706966081718	876.881724277306	762.499758886554	295.337793058818	813.304886666193	633.177479785179	230.772592657177	911.144022808876	570.461783781332	293.822622401268	923.185747454787	498.205170506604	300.639202153345	897.418736013068	422.325977704652	292.382305512471	811.598869853192	305.703776979122	239.048573865342	866.459893239539	194.836683390946	307.976854852413	734.853502855855	383.972281304268	514.620288630055	630.520152003112	313.176397294524	577.967954591654	640.086011419555	207.069455270850	520.055226869993	462.706030871585	75.332967752373	492.212124225136	639.695984954638	100.306780135462	531.412024544988	542.106792029911	52.797232849567	566.772115941963	747.375450209808	36.342344263630	561.796450315165	742.176913650660	38.432446456357	347.467482286833	816.241893125652	35.236094133195	266.893266884333	899.742418997066	96.154857310568	293.881982721465	1027.964797810793	44.250887753720	265.338514447968	654.185129778695	1083.671502604860	100.043507624895	698.986802056537	834.032074378858	29.185036065153	853.900276119041	1098.436420034360	673.601673225069	1034.182957784262	929.949992690299	597.555026447204	
38	24.387214285714	596.670600671126	1001.791694432426	425.407399705477	763.268925615752	1415.448217678893	210.247043331801	883.927583078001	1353.953341089746	361.894653297747	823.041800206380	1442.225394438103	539.253798352601	777.230084972035	1486.287046319606	361.559855690419	829.437784031247	934.761967355555	527.809915610006	801.639912777318	952.563566102181	256.443535069134	842.423007463680	721.910710695038	505.853717372332	749.249199048621	621.409074054918	570.778725985752	817.745072569205	557.186725439406	493.157302343821	803.232535925949	457.605981725381	508.635140100327	877.666495239012	761.917956979225	292.801160647311	812.385117830033	632.975792255541	229.170153077166	909.916826624686	569.624412307918	292.005420376926	921.405092021207	497.466284123360	299.303883307085	895.065707582891	421.657963100681	291.228614208198	808.381675652167	305.503504852287	238.231357671732	862.411537367755	194.511988751856	307.543662554643	740.098570777187	384.335345723253	515.121936971715	633.275950480534	316.678780714844	577.739294567367	641.030709474330	209.850092242932	520.784560159889	460.337314974480	83.174476615315	492.519618863433	638.001178933823	101.729205145519	532.093137303308	538.780948865605	57.248353340432	566.894270464924	742.821775835512	35.789896101079	561.749995181561	737.251930834776	38.386622382995	347.417172011120	811.309187593623	35.185468134205	266.808309613491	894.820033735154	96.104502377186	293.795863263188	1023.068131300479	44.165580712476	265.303716701545	657.513671077128	1083.846389259884	96.695154267026	708.639028773825	835.361353999262	25.401374352054	851.182290119921	1099.603534050260	672.010489074675	1027.430843442430	924.606435459092	600.498944426021	
39	24.399571428571	597.599039933345	1002.421608776626	422.375148861802	764.769504746657	1416.080648203606	207.553157870418	884.711330969406	1354.900372740626	359.888514328647	822.798587627693	1443.314131862051	536.806545198531	777.730943092799	1487.047533654790	358.859749518979	829.745460742460	935.563657548719	525.918299330671	803.412690404365	953.170619935186	254.562626854832	846.011874665785	723.405506256216	504.565645930756	754.692321749888	621.826978085916	569.779259938915	824.927628386927	558.094404933330	492.710789591054	811.236002272070	457.098072620236	509.652727494192	878.042413274822	761.151636532232	290.136980879182	811.000790088539	632.793173745601	227.476201807800	908.171356298866	568.749916574437	290.116636972113	919.081208764899	496.716968786975	297.797830963159	892.229740090729	421.018230473085	289.936987739164	804.780354494521	305.233823268418	237.348354082816	858.174246052120	194.211000631629	307.042054818014	746.016377215749	384.887186730581	515.712289129690	636.789790741831	320.501755926948	577.602300382440	642.560967148370	213.023768223727	521.572046998980	458.530590146197	92.010782309584	492.853645462220	636.681066441701	103.513323975320	532.798844627307	535.779315264204	62.466039396039	567.033028991092	738.278864113285	35.175888470158	561.675562783068	732.299156169076	38.333008807353	347.377079876887	806.338721999153	35.107936243384	266.721267308718	889.869762952271	96.018905381852	293.679527029296	1018.137245474062	44.042183917094	265.255921397370	660.807588284365	1084.143770279117	93.273324192091	718.543058897717	837.010627804597	21.609622973199	848.395716936594	1100.790492521986	670.434032147873	1020.258152199438	919.190084461681	603.852125954260	
40	24.411928571429	598.366301407643	1003.046210819463	419.430674096414	766.447861684968	1416.668769473103	204.882910263279	885.508447588933	1355.767707252819	358.002601582615	822.457634796702	1444.359395198299	534.426393048750	778.271738557346	1487.773520918308	356.176529702302	829.878705217692	936.319291808955	524.198297367671	804.996413576286	953.765160988904	252.773596272857	849.897008485204	725.102695240662	503.384538208796	760.614387989170	622.335247783117	568.961293688732	832.646138406184	559.199812548175	492.450683378722	819.778676718549	456.869320119768	510.726302597501	878.061511940051	760.278470061951	287.408666179849	809.281294483564	632.653422410758	225.715955325681	906.013611180638	567.870390689842	288.211448298358	916.325528564038	495.978387044378	296.186072548963	889.024556679434	420.415250210189	288.561890222657	800.909929017056	304.923114507103	236.407424280434	853.797055142435	193.933644432669	306.493673494991	752.566557920014	385.637465458947	516.355449378141	641.054679790136	324.627180724644	577.544036304789	644.658028566766	216.595160076458	522.383039401417	457.349245102700	101.826137075994	493.196780689922	635.727863723914	105.733855970010	533.509032980448	533.149954694668	68.496088566227	567.176867270363	733.772406375651	34.474735788594	561.594904501071	727.326504627258	38.281015560030	347.335592667173	801.343003645847	35.017313762014	266.627860722861	884.903271252608	95.907753544364	293.541538463706	1013.184105728987	43.890130431951	265.199857601212	664.118673557104	1084.520459985068	89.740475636678	728.638563148109	838.934316022054	17.793855987025	845.471727647534	1101.950791468899	668.896891419374	1012.649471114892	913.779714221076	607.613231659547	
41	24.424285714286	598.965762216196	1003.627569669961	416.604154829975	768.269167723665	1417.182923029086	202.272991385210	886.311213871809	1356.516896510228	356.248976978043	822.051070823203	1445.325880953845	532.136213110569	778.858533959585	1488.442748137052	353.546490580590	829.854210871553	937.011218340483	522.615157807730	806.372641121765	954.348988705097	251.055013492007	854.017188549360	727.008043350730	502.291724038551	766.942556930846	622.960102429789	568.314755054255	840.808977583913	560.530062416887	492.370625607590	828.789320675215	456.953119465182	511.824615663809	877.794693957277	759.368080773103	284.684756119618	807.343897930561	632.564471724883	223.932010094077	903.554951621504	567.006938825622	286.346456532308	913.257589572329	495.264510579767	294.546602002012	885.565760732942	419.851585161850	287.165995948452	796.877755369395	304.597144209276	235.431064744345	849.327192896109	193.676528867871	305.924514373367	759.681160696878	386.599048341825	517.019275218192	646.028560236526	329.033282069231	577.546659683283	647.289412103859	220.560195843614	523.183380223319	456.849248684870	112.552098537190	493.525821258219	635.137148093368	108.451706591935	534.204369005803	530.945893068796	75.345663698242	567.311839834807	729.346392894736	33.685159441819	561.535904355998	722.342086084443	38.236844797403	347.285161225748	796.334179862073	34.925367091039	266.527332064630	879.930197400930	95.781938587385	293.392763960476	1008.219625406965	43.721440461573	265.140292886560	667.505315887458	1084.939634883722	86.065181470795	738.874880435052	841.086110739168	13.936978651985	842.339402449264	1103.041808578199	667.426788227891	1004.593285976420	908.452610685597	611.773122387542	
